<svg xmlns="http://www.w3.org/2000/svg" viewBox="0 0 240 240">
  <defs>
    <linearGradient id="stone" x1="0" y1="0" x2="1" y2="1">
      <stop offset="0" stop-color="#C7BDAE"/>
      <stop offset="1" stop-color="#8C8070"/>
    </linearGradient>
  </defs>
  <rect width="240" height="240" rx="60" fill="#2A211A"/>
  <g transform="translate(2.93,-6.44) scale(0.9756)">
    <rect x="81.6" y="184.8" width="19.2" height="33.6" rx="9.6" fill="#8C8070"/>
    <rect x="139.2" y="184.8" width="19.2" height="33.6" rx="9.6" fill="#8C8070"/>
    <path d="M120 31.2 C190.85 31.2 218.4 59.62 218.4 112.9 C218.4 173.28 186.91 208.8 123.94 208.8 C49.15 208.8 21.6 176.83 21.6 123.55 C21.6 63.17 53.09 31.2 120 31.2 Z"
          fill="url(#stone)" stroke="#8C8070" stroke-width="4.8" stroke-opacity="0.5"/>
    <circle cx="90" cy="90" r="12" fill="#291F1A"/>
    <circle cx="95.5" cy="85.5" r="4.5" fill="#fff"/>
    <circle cx="150" cy="90" r="12" fill="#291F1A"/>
    <circle cx="155.5" cy="85.5" r="4.5" fill="#fff"/>
    <path d="M79.2 114 L160.8 114 Q120 172.32 79.2 114 Z" fill="#4D332E"/>
    <ellipse cx="120" cy="146.76" rx="20.4" ry="9" fill="#DB6B70"/>
  </g>
</svg>
