<svg xmlns="http://www.w3.org/2000/svg" viewBox="0 0 100 100" role="img" aria-label="Girona emblem" style="color:#F5940D" fill="currentColor"><path d="M 10.30 54.00 L 23.70 54.00 L 23.70 88.00 L 10.30 88.00 Z M 17.00 42.00 L 10.30 54.00 L 23.70 54.00 Z M 26.30 36.00 L 37.70 36.00 L 37.70 88.00 L 26.30 88.00 Z M 32.00 22.00 L 26.30 36.00 L 37.70 36.00 Z M 40.30 48.00 L 53.70 48.00 L 53.70 88.00 L 40.30 88.00 Z M 47.00 34.00 L 40.30 48.00 L 53.70 48.00 Z M 56.30 32.00 L 67.70 32.00 L 67.70 88.00 L 56.30 88.00 Z M 62.00 18.00 L 56.30 32.00 L 67.70 32.00 Z M 70.30 50.00 L 89.70 50.00 L 89.70 88.00 L 70.30 88.00 Z M 80.00 38.00 L 70.30 50.00 L 89.70 50.00 Z M 14.19 64.20 L 14.19 77.80 L 19.81 77.80 L 19.81 64.20 Z M 29.61 51.60 L 29.61 72.40 L 34.39 72.40 L 34.39 51.60 Z M 44.19 60.00 L 44.19 76.00 L 49.81 76.00 L 49.81 60.00 Z M 59.61 48.80 L 59.61 71.20 L 64.39 71.20 L 64.39 48.80 Z M 75.93 61.40 L 75.93 76.60 L 84.07 76.60 L 84.07 61.40 Z M 8.00 88.00 L 92.00 88.00 L 92.00 94.00 L 8.00 94.00 Z " fill="currentColor"/></svg>