<svg xmlns="http://www.w3.org/2000/svg" viewBox="0 0 100 100" role="img" aria-label="Stockholm emblem" style="color:#F5940D" fill="currentColor"><path d="M 8.00,35.00 L 8.00,23.00 L 8.28,23.00 L 13.89,12.80 L 19.50,23.00 L 19.11,23.00 L 25.00,8.00 L 30.89,23.00 L 30.50,23.00 L 36.11,12.80 L 41.72,23.00 L 42.00,23.00 L 42.00,35.00 Z M 11.29,12.41 C 11.29,10.97 12.45,9.81 13.89,9.81 C 15.33,9.81 16.49,10.97 16.49,12.41 C 16.49,13.85 15.33,15.01 13.89,15.01 C 12.45,15.01 11.29,13.85 11.29,12.41 Z M 22.40,7.61 C 22.40,6.17 23.56,5.01 25.00,5.01 C 26.44,5.01 27.60,6.17 27.60,7.61 C 27.60,9.05 26.44,10.21 25.00,10.21 C 23.56,10.21 22.40,9.05 22.40,7.61 Z M 33.51,12.41 C 33.51,10.97 34.67,9.81 36.11,9.81 C 37.55,9.81 38.71,10.97 38.71,12.41 C 38.71,13.85 37.55,15.01 36.11,15.01 C 34.67,15.01 33.51,13.85 33.51,12.41 Z M 6.64,34.00 L 43.36,34.00 L 43.36,38.60 L 6.64,38.60 Z M 58.00,35.00 L 58.00,23.00 L 58.28,23.00 L 63.89,12.80 L 69.50,23.00 L 69.11,23.00 L 75.00,8.00 L 80.89,23.00 L 80.50,23.00 L 86.11,12.80 L 91.72,23.00 L 92.00,23.00 L 92.00,35.00 Z M 61.29,12.41 C 61.29,10.97 62.45,9.81 63.89,9.81 C 65.33,9.81 66.49,10.97 66.49,12.41 C 66.49,13.85 65.33,15.01 63.89,15.01 C 62.45,15.01 61.29,13.85 61.29,12.41 Z M 72.40,7.61 C 72.40,6.17 73.56,5.01 75.00,5.01 C 76.44,5.01 77.60,6.17 77.60,7.61 C 77.60,9.05 76.44,10.21 75.00,10.21 C 73.56,10.21 72.40,9.05 72.40,7.61 Z M 83.51,12.41 C 83.51,10.97 84.67,9.81 86.11,9.81 C 87.55,9.81 88.71,10.97 88.71,12.41 C 88.71,13.85 87.55,15.01 86.11,15.01 C 84.67,15.01 83.51,13.85 83.51,12.41 Z M 56.64,34.00 L 93.36,34.00 L 93.36,38.60 L 56.64,38.60 Z M 31.64,78.16 L 31.64,65.20 L 31.94,65.20 L 38.00,54.18 L 44.06,65.20 L 43.64,65.20 L 50.00,49.00 L 56.36,65.20 L 55.94,65.20 L 62.00,54.18 L 68.06,65.20 L 68.36,65.20 L 68.36,78.16 Z M 35.19,53.76 C 35.19,52.21 36.45,50.95 38.00,50.95 C 39.55,50.95 40.81,52.21 40.81,53.76 C 40.81,55.31 39.55,56.57 38.00,56.57 C 36.45,56.57 35.19,55.31 35.19,53.76 Z M 47.19,48.58 C 47.19,47.03 48.45,45.77 50.00,45.77 C 51.55,45.77 52.81,47.03 52.81,48.58 C 52.81,50.13 51.55,51.39 50.00,51.39 C 48.45,51.39 47.19,50.13 47.19,48.58 Z M 59.19,53.76 C 59.19,52.21 60.45,50.95 62.00,50.95 C 63.55,50.95 64.81,52.21 64.81,53.76 C 64.81,55.31 63.55,56.57 62.00,56.57 C 60.45,56.57 59.19,55.31 59.19,53.76 Z M 30.17,77.16 L 69.83,77.16 L 69.83,82.05 L 30.17,82.05 Z" fill="currentColor"/></svg>