<svg xmlns="http://www.w3.org/2000/svg" viewBox="25.9 33.2 166.3 165.3" role="img" aria-label="Munich emblem" style="color:#F5940D" fill="currentColor"><path d="M93.2 34.2L102.2 33.2 118.9 34.7 126.9 37.3 133.7 42.1 139.2 49.6 143.2 61.1 126.4 61.3 121.2 64.4 124.0 69.5 131.9 74.1 148.6 75.2 166.3 71.0 167.6 69.6 167.1 64.8 172.1 61.7 170.0 57.3 182.9 50.7 192.2 69.7 179.2 76.8 173.7 65.1 172.7 71.9 168.0 75.1 168.5 77.1 172.3 75.6 174.6 72.0 176.9 76.8 163.3 85.1 163.3 198.4 150.8 194.5 145.8 187.9 144.3 115.3 139.4 105.8 132.4 100.8 132.4 196.6 84.3 196.4 84.3 102.2 76.6 106.7 72.3 114.3 71.0 185.8 63.5 194.7 52.9 197.2 53.1 83.0 30.8 71.0 31.8 68.8 37.4 71.0 37.9 69.5 32.5 67.4 34.1 66.0 39.4 67.8 39.4 66.1 25.9 58.6 26.7 57.0 35.0 61.9 35.5 60.6 27.4 55.1 28.5 53.1 40.8 62.2 42.7 70.3 46.7 73.1 42.8 62.2 38.2 57.0 38.6 54.0 49.4 62.8 49.8 68.2 53.1 70.9 72.8 75.2 88.6 72.9 95.7 69.3 101.6 63.6 90.1 63.0 89.4 56.3 87.0 55.8 88.4 39.6Z" fill="currentColor"/></svg>