<svg xmlns="http://www.w3.org/2000/svg" viewBox="0 0 100 100" role="img" aria-label="Edinburgh emblem" style="color:#F5940D" fill="currentColor"><path d="M8 92L14 82L22 86L30 76L40 82L50 74L60 82L70 77L79 85L86 80L92 92ZM20.00 56.00L80.00 56.00L80.00 84.00L20.00 84.00ZM20.00 51.00L26.67 51.00L26.67 56.00L20.00 56.00ZM33.33 51.00L40.00 51.00L40.00 56.00L33.33 56.00ZM46.67 51.00L53.33 51.00L53.33 56.00L46.67 56.00ZM60.00 51.00L66.67 51.00L66.67 56.00L60.00 56.00ZM73.33 51.00L80.00 51.00L80.00 56.00L73.33 56.00ZM17.00 42.00L33.00 42.00L33.00 84.00L17.00 84.00ZM17.00 37.00L20.20 37.00L20.20 42.00L17.00 42.00ZM23.40 37.00L26.60 37.00L26.60 42.00L23.40 42.00ZM29.80 37.00L33.00 37.00L33.00 42.00L29.80 42.00ZM67.00 42.00L83.00 42.00L83.00 84.00L67.00 84.00ZM67.00 37.00L70.20 37.00L70.20 42.00L67.00 42.00ZM73.40 37.00L76.60 37.00L76.60 42.00L73.40 42.00ZM79.80 37.00L83.00 37.00L83.00 42.00L79.80 42.00ZM40.00 30.00L60.00 30.00L60.00 84.00L40.00 84.00ZM40.00 24.00L44.00 24.00L44.00 30.00L40.00 30.00ZM48.00 24.00L52.00 24.00L52.00 30.00L48.00 30.00ZM56.00 24.00L60.00 24.00L60.00 30.00L56.00 30.00ZM49.2 30L49.2 18L50.8 18L50.8 30ZM50.8 19L62 22L50.8 25ZM44 84L44 66C44 60,56 60,56 66L56 84Z" fill="currentColor" fill-rule="nonzero"/></svg>