<svg xmlns="http://www.w3.org/2000/svg" viewBox="0 0 100 100" role="img" aria-label="Ljubljana emblem" style="color:#F5940D" fill="currentColor"><path d="M10.00 88.00C10.00 79.72,27.91 73.00,50.00 73.00C72.09 73.00,90.00 79.72,90.00 88.00C90.00 96.28,72.09 103.00,50.00 103.00C27.91 103.00,10.00 96.28,10.00 88.00ZM15.00 68.00L85.00 68.00L85.00 80.00L15.00 80.00ZM15.00 63.00L19.67 63.00L19.67 68.00L15.00 68.00ZM24.33 63.00L29.00 63.00L29.00 68.00L24.33 68.00ZM33.67 63.00L38.33 63.00L38.33 68.00L33.67 68.00ZM43.00 63.00L47.67 63.00L47.67 68.00L43.00 68.00ZM52.33 63.00L57.00 63.00L57.00 68.00L52.33 68.00ZM61.67 63.00L66.33 63.00L66.33 68.00L61.67 68.00ZM71.00 63.00L75.67 63.00L75.67 68.00L71.00 68.00ZM80.33 63.00L85.00 63.00L85.00 68.00L80.33 68.00ZM56.00 20.00L74.00 20.00L74.00 80.00L56.00 80.00ZM54.50 20.00L75.50 20.00L75.50 27.00L54.50 27.00ZM54.50 14.50L58.70 14.50L58.70 20.00L54.50 20.00ZM62.90 14.50L67.10 14.50L67.10 20.00L62.90 20.00ZM71.30 14.50L75.50 14.50L75.50 20.00L71.30 20.00ZM28 80L28 68C28 64,38 64,38 68L38 80ZM62 50L62 36L68 36L68 50Z" fill="currentColor" fill-rule="nonzero"/></svg>