<svg xmlns="http://www.w3.org/2000/svg" viewBox="0 0 100 100" role="img" aria-label="Dublin emblem" style="color:#F5940D" fill="currentColor"><path d="M28 86C24 64,26 46,37 31C41 25,47 26,45 33C37 46,35 64,40 86ZM37 31C48 21,60 20,70 25L67 33C58 29,49 31,42 38ZM63 30L72 26L74 88L58 88C58 68,60 48,63 30ZM26 84L76 84L76 90L26 90ZM44.0 40L45.6 39L56.6 82L55.0 83ZM48.2 40L49.8 39L60.0 82L58.4 83ZM52.4 40L54.0 39L63.4 82L61.8 83ZM56.6 40L58.2 39L66.8 82L65.2 83ZM60.8 40L62.4 39L70.2 82L68.6 83Z" fill="currentColor"/></svg>