<svg xmlns="http://www.w3.org/2000/svg" viewBox="0 0 100 100" role="img" aria-label="Verona emblem" style="color:#F5940D" fill="currentColor"><path d="M 95.000 54.000 C 95.000 70.016 74.853 83.000 50.000 83.000 C 25.147 83.000 5.000 70.016 5.000 54.000 C 5.000 37.984 25.147 25.000 50.000 25.000 C 74.853 25.000 95.000 37.984 95.000 54.000 Z  M 3.000 81.500 L 97.000 81.500 L 97.000 91.000 L 3.000 91.000 Z  M 77.000 54.000 C 77.000 46.268 64.912 40.000 50.000 40.000 C 35.088 40.000 23.000 46.268 23.000 54.000 C 23.000 61.732 35.088 68.000 50.000 68.000 C 64.912 68.000 77.000 61.732 77.000 54.000 Z  M 43.200 38.800 L 56.800 38.800 L 56.800 26.200 L 43.200 26.200 Z  M 64.113 40.047 L 76.107 46.457 L 86.534 38.001 L 75.069 30.684 Z  M 78.440 47.200 L 78.440 60.800 L 93.560 60.800 L 93.560 47.200 Z  M 76.107 61.543 L 64.113 67.953 L 75.069 77.316 L 86.534 69.999 Z  M 56.800 69.200 L 43.200 69.200 L 43.200 81.800 L 56.800 81.800 Z  M 35.887 67.953 L 23.893 61.543 L 13.466 69.999 L 24.931 77.316 Z  M 21.560 60.800 L 21.560 47.200 L 6.440 47.200 L 6.440 60.800 Z  M 23.893 46.457 L 35.887 40.047 L 24.931 30.684 L 13.466 38.001 Z" fill="currentColor"/></svg>