<svg xmlns="http://www.w3.org/2000/svg" viewBox="0 0 100 100" role="img" aria-label="York emblem" style="color:#F5940D" fill="currentColor"><path d="M 30.00 88.00 L 70.00 88.00 L 70.00 32.00 C 70.00 26.50 50.80 23.50 50.00 22.00 C 49.20 23.50 30.00 26.50 30.00 32.00 Z M 8.00 12.00 L 30.00 12.00 L 30.00 88.00 L 8.00 88.00 Z M 70.00 12.00 L 92.00 12.00 L 92.00 88.00 L 70.00 88.00 Z M 7.80 13.00 L 14.20 13.00 L 11.00 1.00 Z M 23.80 13.00 L 30.20 13.00 L 27.00 1.00 Z M 14.60 13.00 L 23.40 13.00 L 19.00 -3.00 Z M 69.80 13.00 L 76.20 13.00 L 73.00 1.00 Z M 85.80 13.00 L 92.20 13.00 L 89.00 1.00 Z M 76.60 13.00 L 85.40 13.00 L 81.00 -3.00 Z M 45.50 23.00 L 54.50 23.00 L 50.00 14.00 Z M 8.00 84.00 L 92.00 84.00 L 92.00 90.00 L 8.00 90.00 Z M 42.00 78.00 L 42.00 44.00 C 42.00 36.30 49.68 32.10 50.00 30.00 C 50.32 32.10 58.00 36.30 58.00 44.00 L 58.00 78.00 Z M 46.00 84.00 L 46.00 76.00 C 46.00 71.60 49.84 69.20 50.00 68.00 C 50.16 69.20 54.00 71.60 54.00 76.00 L 54.00 84.00 Z M 16.00 60.00 L 16.00 42.00 C 16.00 36.50 18.88 33.50 19.00 32.00 C 19.12 33.50 22.00 36.50 22.00 42.00 L 22.00 60.00 Z M 17.00 82.00 L 17.00 74.00 C 17.00 70.70 18.92 68.90 19.00 68.00 C 19.08 68.90 21.00 70.70 21.00 74.00 L 21.00 82.00 Z M 78.00 60.00 L 78.00 42.00 C 78.00 36.50 80.88 33.50 81.00 32.00 C 81.12 33.50 84.00 36.50 84.00 42.00 L 84.00 60.00 Z M 79.00 82.00 L 79.00 74.00 C 79.00 70.70 80.92 68.90 81.00 68.00 C 81.08 68.90 83.00 70.70 83.00 74.00 L 83.00 82.00 Z" fill="currentColor"/></svg>
