<svg xmlns="http://www.w3.org/2000/svg" viewBox="51.3 22.7 359.3 518.8" role="img" aria-label="Florence emblem" style="color:#F5940D" fill="currentColor"><path d="M118.4 84.0L129.5 74.3L134.6 73.3L141.0 74.6L140.5 69.6L138.0 65.0L132.2 62.3L121.7 63.8L120.7 57.7L114.9 53.4L114.9 59.4L107.0 67.9L101.9 79.6L98.4 73.7L98.7 59.6L90.9 48.5L89.7 39.0L82.9 44.4L80.6 53.3L71.7 45.1L59.6 41.8L95.3 82.4L59.6 41.8L61.5 53.9L68.4 64.2L59.4 65.9L53.3 71.5L62.3 74.0L73.4 82.8L85.7 84.8L91.6 88.0L91.3 89.6L78.7 93.3L69.1 100.7L63.2 101.0L67.0 106.8L73.5 108.5L70.7 116.3L74.0 126.0L78.1 128.3L82.6 128.1L82.6 118.0L93.6 106.3L95.6 99.6L101.1 101.6L105.4 101.2L105.9 106.3L108.4 107.7L112.7 106.9L145.3 148.4L134.5 149.9L125.8 156.1L135.4 155.9L147.0 167.2L156.2 165.5L155.2 171.7L157.6 174.1L162.0 174.8L169.4 188.1L159.4 185.6L164.0 190.6L153.9 190.9L147.5 196.8L159.2 197.4L171.1 205.5L176.5 206.9L175.4 213.3L179.4 217.1L183.6 217.7L187.3 226.8L197.3 256.9L203.4 285.0L207.4 317.8L207.9 350.7L203.4 350.7L203.0 311.1L196.9 274.1L188.2 249.0L176.4 228.8L160.4 212.7L141.8 202.8L118.9 198.6L95.7 201.1L86.7 204.6L77.4 210.7L69.7 218.6L63.9 228.3L59.9 239.6L57.9 252.3L58.0 265.2L60.4 278.4L67.4 293.8L79.1 307.6L95.1 319.5L135.1 341.8L141.3 348.2L143.2 354.5L142.0 359.4L138.9 363.1L135.8 365.1L132.7 362.9L130.1 365.1L117.5 354.0L115.9 346.7L119.4 340.6L114.7 341.6L109.2 347.0L110.9 353.9L103.3 351.8L104.5 360.4L109.6 368.3L103.4 368.9L86.7 384.2L76.0 387.2L88.8 393.8L84.7 397.6L82.7 402.1L84.9 419.4L95.6 410.4L97.9 401.4L106.5 405.9L104.1 395.4L108.2 392.5L112.2 386.3L114.4 385.6L116.8 386.1L112.1 392.1L111.0 397.7L113.8 407.1L117.5 409.9L118.5 402.7L122.0 410.6L127.4 415.8L134.5 417.3L139.7 415.8L132.3 406.0L132.1 402.7L134.7 395.6L133.0 385.7L138.6 385.5L141.6 375.1L150.9 369.2L157.4 361.9L160.7 353.7L160.9 343.4L158.5 335.6L152.9 327.2L121.3 298.5L117.2 289.7L117.1 280.9L122.6 271.0L134.4 265.9L149.4 267.3L163.2 274.4L173.6 285.0L182.3 299.6L188.7 317.7L191.9 337.0L192.2 350.7L182.8 351.9L174.8 357.5L170.5 366.3L171.0 376.5L174.8 383.3L182.8 388.9L203.7 390.1L200.7 400.5L201.3 410.5L186.1 422.9L171.8 430.0L151.7 433.6L127.2 434.2L115.8 438.1L109.7 442.9L105.5 449.3L103.7 457.0L104.5 465.2L108.6 474.1L115.8 480.5L125.5 483.2L134.4 481.9L139.5 478.5L141.8 474.1L130.6 469.0L126.0 465.2L123.5 461.5L127.8 464.3L134.5 463.1L129.8 457.4L129.9 453.3L132.6 449.2L137.3 446.4L151.7 445.2L140.6 456.2L138.3 464.9L143.5 461.8L143.4 468.4L146.2 476.4L151.7 482.1L157.2 483.9L155.2 473.8L159.3 462.5L161.3 470.6L168.3 476.0L168.4 460.6L170.7 453.9L175.0 447.6L184.0 441.7L180.9 452.5L177.8 457.3L185.5 455.7L192.1 450.1L195.9 454.9L197.5 449.7L206.1 441.8L207.8 431.8L210.7 429.1L213.8 429.2L214.3 435.8L209.3 447.4L202.9 454.9L190.0 462.5L183.5 468.4L179.8 475.9L179.6 484.9L180.9 487.2L183.7 484.2L193.0 480.1L198.0 474.8L197.7 481.6L200.2 487.1L202.6 480.8L210.3 472.1L216.1 462.2L221.4 442.3L217.3 467.6L203.7 497.3L210.6 496.9L220.4 492.4L217.8 505.2L218.4 519.0L223.1 530.8L230.9 539.6L238.8 530.8L243.3 519.8L244.2 507.1L241.5 492.4L250.6 496.7L258.2 497.2L244.7 468.0L241.5 455.0L240.7 448.2L240.5 442.4L245.8 462.2L251.6 472.1L259.3 480.8L261.7 487.1L264.2 481.6L263.8 474.8L268.8 480.1L278.2 484.2L281.0 487.2L282.3 484.9L282.0 475.9L278.3 468.4L271.9 462.5L258.9 454.9L252.6 447.3L247.6 435.9L248.1 429.2L251.2 429.1L254.1 431.8L255.8 441.8L264.4 449.7L266.0 454.9L269.7 450.1L276.4 455.7L284.1 457.3L281.0 452.5L277.8 441.7L286.9 447.6L291.2 453.9L293.5 460.6L293.6 476.0L300.6 470.6L302.6 462.5L306.7 473.8L304.7 483.9L310.2 482.1L315.7 476.4L318.5 468.4L318.4 461.8L323.6 464.9L321.2 456.2L310.2 445.2L324.6 446.4L329.3 449.2L332.0 453.3L332.1 457.4L327.4 463.1L334.1 464.3L338.3 461.5L331.2 469.0L320.0 474.1L322.3 478.5L327.5 481.9L336.4 483.2L346.1 480.5L353.3 474.1L357.4 465.2L358.2 457.0L356.4 449.3L352.2 442.9L346.1 438.1L334.7 434.2L310.1 433.6L290.0 430.0L275.8 422.9L260.6 410.5L261.1 399.5L258.2 390.1L279.0 388.9L287.0 383.3L290.9 376.5L291.4 366.3L287.0 357.5L279.0 351.9L269.7 350.7L270.9 328.9L275.9 308.5L283.7 291.6L294.3 278.1L306.6 269.5L320.2 265.9L332.6 267.1L341.1 273.0L345.1 282.9L344.5 290.5L340.5 298.5L309.0 327.2L303.4 335.6L300.9 343.4L301.2 353.7L304.5 361.9L311.0 369.2L320.3 375.1L323.3 385.5L328.8 385.7L327.2 395.6L329.8 402.7L329.5 406.0L322.2 415.8L327.4 417.3L334.5 415.8L339.9 410.6L343.4 402.7L344.4 409.9L348.1 407.1L350.9 397.7L349.8 392.1L345.1 386.1L347.5 385.6L349.7 386.3L353.7 392.5L357.8 395.4L355.4 405.9L363.9 401.4L366.3 410.4L371.5 416.0L377.1 419.2L379.2 402.1L377.2 397.6L373.1 393.8L385.9 387.2L375.1 384.2L358.5 368.9L352.3 368.3L357.4 360.4L358.6 351.8L351.0 353.9L352.9 349.9L351.4 344.4L342.5 340.6L346.0 346.7L345.8 351.5L331.8 365.1L329.2 362.9L326.1 365.1L323.0 363.1L319.9 359.4L318.7 354.5L321.2 347.2L328.0 340.9L364.9 320.7L379.4 310.6L390.5 299.4L397.9 287.6L403.6 268.0L402.8 243.7L396.3 224.9L384.5 210.7L375.2 204.6L366.1 201.1L343.0 198.6L330.0 200.1L318.2 203.5L298.5 215.1L289.1 224.3L280.1 236.8L272.9 250.8L266.7 268.1L259.3 307.0L258.5 350.7L254.0 350.7L254.5 317.8L257.4 291.5L262.3 265.5L269.4 241.2L278.3 217.7L285.5 214.9L286.8 211.4L285.4 206.9L290.8 205.5L302.7 197.4L314.4 196.8L307.9 190.9L297.9 190.6L302.4 185.6L292.5 188.1L293.1 186.9L299.9 174.8L304.3 174.1L306.7 171.7L305.7 165.5L314.9 167.2L326.5 155.9L336.1 156.1L327.3 149.9L316.6 148.4L349.1 106.9L353.5 107.7L356.0 106.3L356.5 101.2L360.8 101.6L366.3 99.6L368.2 106.3L379.2 118.0L379.3 128.1L383.8 128.3L387.8 126.0L391.2 116.3L388.4 108.5L394.9 106.8L398.7 101.0L392.7 100.7L383.1 93.3L370.6 89.6L370.3 88.0L376.2 84.8L388.5 82.8L399.6 74.0L408.6 71.5L402.5 65.9L393.5 64.2L400.4 53.9L402.3 41.8L366.6 82.4L402.3 41.8L390.2 45.1L381.3 53.3L378.9 44.4L372.2 39.0L371.0 48.5L363.2 59.6L363.5 73.7L360.0 79.6L354.9 67.9L347.0 59.4L347.0 53.4L341.2 57.7L340.2 63.8L329.7 62.3L323.8 65.0L321.4 69.6L320.9 74.6L327.3 73.3L332.4 74.3L343.5 84.0L350.1 85.9L348.8 90.8L349.9 95.5L344.9 96.7L343.9 99.4L345.5 103.9L310.9 145.5L305.7 135.2L296.2 128.5L299.5 133.3L300.8 138.4L299.7 143.7L295.0 151.0L295.4 156.0L299.2 161.5L294.2 162.2L291.8 164.6L291.4 168.0L293.5 171.7L286.7 183.5L282.7 176.3L281.4 182.0L275.8 174.6L267.6 173.0L274.4 132.7L274.4 117.9L272.1 103.2L264.3 78.7L257.8 64.0L246.0 44.5L230.9 24.7L206.3 59.8L199.2 74.5L192.3 94.4L188.1 111.6L187.3 128.6L189.2 148.8L194.2 173.0L186.1 174.6L180.5 182.0L179.2 176.3L175.1 183.5L168.4 171.7L170.5 168.0L170.1 164.6L167.7 162.2L162.7 161.5L166.5 156.0L166.8 151.0L162.2 143.7L161.1 138.4L162.3 133.3L165.7 128.5L156.2 135.2L151.0 145.5L116.4 103.9L117.7 98.0L115.8 95.8L112.0 95.5L113.1 90.8L111.8 85.9ZM247.0 350.7L249.3 309.7L254.7 273.5L262.3 242.5L271.8 215.0L269.0 210.5L269.2 206.8L271.4 203.9L276.4 202.4L274.0 197.5L273.1 181.6L267.5 173.4L255.7 219.2L247.9 268.0L243.2 343.4L243.2 350.7ZM214.1 350.7L218.7 350.7L217.5 309.5L214.0 268.0L206.2 219.2L194.4 173.4L188.8 181.6L187.9 197.5L185.5 202.4L190.4 203.9L192.7 206.8L192.9 210.5L190.1 215.0L199.6 242.5L207.2 273.5L212.8 312.0Z" fill="currentColor"/></svg>