<svg xmlns="http://www.w3.org/2000/svg" viewBox="0 0 100 100" role="img" aria-label="Lisbon emblem" style="color:#F5940D" fill="currentColor"><path d="M 10.000 62.000 L 90.000 62.000 L 90.000 88.000 L 10.000 88.000 Z  M 12.000 55.000 L 19.000 55.000 L 19.000 64.000 L 12.000 64.000 Z  M 24.000 55.000 L 31.000 55.000 L 31.000 64.000 L 24.000 64.000 Z  M 36.000 55.000 L 43.000 55.000 L 43.000 64.000 L 36.000 64.000 Z  M 48.000 55.000 L 55.000 55.000 L 55.000 64.000 L 48.000 64.000 Z  M 60.000 55.000 L 67.000 55.000 L 67.000 64.000 L 60.000 64.000 Z  M 72.000 55.000 L 79.000 55.000 L 79.000 64.000 L 72.000 64.000 Z  M 12.000 50.000 L 24.000 50.000 L 24.000 66.000 L 12.000 66.000 Z  M 12.000 50.000 C 12.000 46.134 14.686 43.000 18.000 43.000 C 21.314 43.000 24.000 46.134 24.000 50.000 L 12.000 50.000 Z  M 76.000 50.000 L 88.000 50.000 L 88.000 66.000 L 76.000 66.000 Z  M 76.000 50.000 C 76.000 46.134 78.686 43.000 82.000 43.000 C 85.314 43.000 88.000 46.134 88.000 50.000 L 76.000 50.000 Z  M 33.000 12.000 L 67.000 12.000 L 67.000 66.000 L 33.000 66.000 Z  M 33.000 4.000 L 41.000 4.000 L 41.000 14.000 L 33.000 14.000 Z  M 46.000 4.000 L 54.000 4.000 L 54.000 14.000 L 46.000 14.000 Z  M 59.000 4.000 L 67.000 4.000 L 67.000 14.000 L 59.000 14.000 Z  M 46.000 46.000 L 54.000 46.000 L 54.000 30.000 L 46.000 30.000 Z  M 46.000 88.000 L 54.000 88.000 L 54.000 74.000 L 46.000 74.000 Z  M 54.000 74.000 C 52.209 69.000 54.000 71.239 54.000 69.000 C 47.791 69.000 46.000 71.239 46.000 74.000 L 54.000 74.000 Z" fill="currentColor"/></svg>