<svg xmlns="http://www.w3.org/2000/svg" viewBox="0 0 100 100" role="img" aria-label="Siena emblem" style="color:#F5940D" fill="currentColor"><path d="M 42.00 30.00 L 58.00 30.00 L 58.00 88.00 L 42.00 88.00 Z M 39.00 84.00 L 61.00 84.00 L 61.00 88.00 L 39.00 88.00 Z M 25.00 18.00 L 75.00 18.00 L 75.00 32.00 L 25.00 32.00 Z M 30.00 30.00 L 70.00 30.00 L 70.00 34.00 L 30.00 34.00 Z M 20.00 10.00 L 28.00 10.00 L 28.00 18.00 L 20.00 18.00 Z M 33.00 10.00 L 41.00 10.00 L 41.00 18.00 L 33.00 18.00 Z M 46.00 10.00 L 54.00 10.00 L 54.00 18.00 L 46.00 18.00 Z M 59.00 10.00 L 67.00 10.00 L 67.00 18.00 L 59.00 18.00 Z M 72.00 10.00 L 80.00 10.00 L 80.00 18.00 L 72.00 18.00 Z" fill="currentColor"/></svg>