<svg xmlns="http://www.w3.org/2000/svg" viewBox="0 0 100 100" role="img" aria-label="Lucca emblem" style="color:#F5940D" fill="currentColor"><path d="M 34.00 46.00 L 66.00 46.00 L 66.00 88.00 L 34.00 88.00 Z M 30.00 84.00 L 70.00 84.00 L 70.00 90.00 L 30.00 90.00 Z M 41.00 42.00 L 47.00 42.00 L 47.00 46.00 L 41.00 46.00 Z M 53.00 42.00 L 59.00 42.00 L 59.00 46.00 L 53.00 46.00 Z M 45.00 30.00 L 55.00 30.00 L 55.00 46.00 L 45.00 46.00 Z M 50.00 6.00 C 59.94 6.00 68.00 12.27 68.00 20.00 C 68.00 27.73 59.94 34.00 50.00 34.00 C 40.06 34.00 32.00 27.73 32.00 20.00 C 32.00 12.27 40.06 6.00 50.00 6.00 Z M 34.00 18.00 C 40.63 18.00 46.00 22.48 46.00 28.00 C 46.00 33.52 40.63 38.00 34.00 38.00 C 27.37 38.00 22.00 33.52 22.00 28.00 C 22.00 22.48 27.37 18.00 34.00 18.00 Z M 66.00 18.00 C 72.63 18.00 78.00 22.48 78.00 28.00 C 78.00 33.52 72.63 38.00 66.00 38.00 C 59.37 38.00 54.00 33.52 54.00 28.00 C 54.00 22.48 59.37 18.00 66.00 18.00 Z M 50.00 19.00 C 58.28 19.00 65.00 23.92 65.00 30.00 C 65.00 36.08 58.28 41.00 50.00 41.00 C 41.72 41.00 35.00 36.08 35.00 30.00 C 35.00 23.92 41.72 19.00 50.00 19.00 Z" fill="currentColor"/></svg>
