<svg xmlns="http://www.w3.org/2000/svg" viewBox="45.0 26.7 427.2 486.4" role="img" aria-label="Passau emblem" style="color:#F5940D" fill="currentColor"><path d="M201.8 73.1L199.1 69.2 199.8 56.3 201.8 49.6 205.9 45.9 248.4 53.8 253.3 53.6 264.9 47.7 289.6 50.1 296.9 45.3 307.1 33.7 314.7 30.4 315.6 66.2 322.1 73.3 326.7 83.4 333.2 83.1 339.4 75.4 340.1 78.7 339.2 88.5 327.7 95.6 330.8 99.8 336.0 101.8 341.7 100.9 348.3 97.5 348.6 101.3 346.3 105.6 335.0 113.4 340.3 114.7 351.4 110.4 346.0 118.6 335.0 127.6 337.1 132.9 337.5 143.7 334.9 142.5 332.6 154.0 328.6 163.0 323.4 152.9 315.5 146.6 313.8 147.0 320.8 157.9 323.3 167.8 321.6 181.6 316.6 176.5 313.4 175.4 311.3 190.8 314.6 195.7 317.8 206.5 323.7 213.4 362.0 241.3 371.4 253.2 376.3 263.4 391.9 266.0 419.8 276.7 422.9 276.6 426.6 273.9 431.1 265.1 435.5 245.2 435.8 231.9 426.9 209.4 392.9 151.9 387.3 135.8 385.4 122.6 385.9 108.1 389.0 93.6 407.8 64.2 410.3 57.6 410.2 50.8 406.4 43.5 400.2 41.3 393.5 41.4 389.9 44.8 389.7 50.2 392.9 56.4 397.0 60.4 384.3 61.4 377.6 58.9 374.3 55.8 372.4 48.8 373.8 42.5 376.6 37.8 388.5 29.4 396.9 26.9 406.7 27.6 417.6 33.1 426.0 41.9 436.5 63.7 438.4 73.7 438.2 82.1 443.8 89.8 446.5 98.0 447.1 108.7 445.6 121.5 453.0 129.9 457.7 142.0 457.4 153.4 451.6 163.8 454.4 174.5 454.7 185.1 462.5 183.5 470.3 184.1 464.9 188.4 461.2 195.4 461.9 215.6 459.7 223.2 465.4 222.6 472.2 224.2 466.0 233.8 463.6 242.0 463.1 247.0 466.6 247.7 468.1 250.2 459.9 264.9 459.5 266.4 462.8 270.0 456.7 280.6 458.7 286.2 455.6 289.6 449.8 292.2 448.1 298.9 435.9 301.0 435.8 304.5 432.9 306.3 420.7 305.9 415.2 308.5 401.1 304.3 395.4 307.6 384.8 304.7 383.5 318.3 384.8 327.9 390.4 335.9 395.4 337.6 400.6 337.0 407.5 332.7 410.5 328.4 412.9 335.8 411.8 344.9 417.1 347.5 429.1 358.2 436.0 360.3 442.2 360.1 438.3 366.4 429.2 371.4 429.9 379.0 432.0 383.5 438.5 385.9 449.3 380.7 441.0 394.6 433.8 400.5 419.2 418.9 396.6 436.7 404.3 440.6 409.4 445.9 410.0 450.0 407.0 455.9 404.2 459.2 400.3 452.2 394.4 450.5 392.6 452.3 397.0 458.1 396.2 464.8 387.5 462.3 376.7 469.7 361.8 472.2 358.0 486.0 354.0 489.1 351.9 496.5 348.6 498.6 341.5 498.6 340.3 499.9 342.3 513.2 334.0 509.7 328.1 502.6 327.1 493.4 330.4 479.9 327.2 477.2 324.1 476.9 318.0 483.4 313.4 482.9 310.2 488.6 305.8 492.2 300.3 491.4 295.7 486.0 292.5 492.2 291.4 501.8 284.8 494.0 282.6 486.7 284.7 478.2 293.4 470.1 296.9 463.8 302.0 461.4 313.4 461.0 317.8 458.0 310.9 452.9 302.5 454.6 298.2 453.6 296.6 449.9 297.5 442.8 295.3 439.0 284.0 446.7 287.5 435.8 291.1 430.5 297.6 427.5 308.5 430.9 318.7 430.3 323.3 433.1 332.0 434.0 334.5 436.9 335.1 440.9 337.7 442.4 342.1 442.9 349.0 440.7 368.9 395.0 368.2 389.6 370.1 384.7 361.4 377.7 356.5 381.7 349.6 380.1 342.5 386.1 335.9 384.7 329.8 388.8 319.9 391.3 324.8 383.8 326.3 377.0 321.5 354.6 323.4 349.9 328.7 345.6 324.5 340.3 323.3 335.2 323.9 332.0 330.0 324.1 328.1 321.5 326.8 321.1 320.1 328.9 313.7 333.3 305.9 335.5 293.8 336.0 289.9 338.5 290.4 342.1 297.3 353.7 296.5 360.3 293.1 366.7 293.2 370.9 298.1 375.2 307.7 374.0 306.8 377.2 304.1 382.2 298.5 386.6 290.5 388.3 284.4 387.2 283.7 392.3 288.1 398.4 286.9 399.6 277.5 400.6 270.9 396.3 267.6 398.5 266.6 403.6 273.7 413.2 266.1 414.7 252.5 409.0 249.6 410.5 246.9 414.3 247.1 417.3 255.7 423.6 248.4 426.3 242.5 426.5 236.3 423.7 231.6 418.9 227.9 424.1 232.4 432.8 228.3 432.9 217.4 430.0 213.7 426.0 212.3 421.8 209.0 427.2 207.9 433.0 213.8 443.3 207.8 443.9 202.1 443.1 196.0 438.7 192.0 438.4 187.0 428.3 179.3 426.5 174.3 430.8 171.7 439.9 168.4 444.0 161.9 444.6 157.3 450.3 149.6 447.3 142.5 449.8 140.1 456.0 140.6 466.2 133.2 458.9 131.8 450.3 139.3 434.7 152.9 425.3 154.6 423.0 154.1 421.2 145.8 421.6 139.5 425.6 129.0 424.0 123.3 426.5 121.8 424.6 121.9 418.8 118.6 419.1 114.2 421.6 107.6 431.5 110.8 410.3 115.8 406.2 121.9 404.5 127.3 399.7 133.0 399.2 144.4 404.0 157.6 404.5 154.3 400.4 146.2 396.7 146.5 392.7 140.5 391.9 136.2 389.1 135.8 386.7 137.9 383.0 146.5 379.2 140.0 374.2 129.3 374.2 138.1 365.5 147.2 363.8 167.3 371.0 169.7 374.8 167.4 383.1 171.7 387.9 179.8 391.8 193.0 383.8 215.3 375.7 224.5 369.0 227.3 361.7 227.4 356.8 224.5 344.2 218.5 348.5 212.1 350.1 205.9 348.7 200.4 344.3 213.8 340.6 220.3 330.9 214.0 329.5 208.9 330.4 191.7 340.6 186.3 340.3 179.8 337.1 186.5 335.8 190.9 333.1 201.0 319.5 210.4 315.5 222.4 314.3 227.7 305.1 239.4 302.8 253.5 293.4 264.7 293.0 294.0 295.9 307.1 295.2 325.7 288.8 319.3 283.6 309.5 278.5 280.4 269.0 267.8 261.8 253.5 262.5 244.8 261.1 239.1 258.0 234.5 252.3 230.8 257.7 230.0 262.9 231.8 268.0 236.1 272.9 226.6 274.7 220.7 274.0 217.5 271.7 214.2 264.7 209.3 269.8 208.6 275.2 211.6 280.2 217.8 284.0 211.3 284.8 201.8 282.6 196.1 273.7 193.5 277.7 193.4 281.2 199.6 291.9 188.1 291.2 181.9 285.5 179.1 286.2 178.0 292.2 185.3 300.7 173.5 300.6 164.4 295.1 163.9 300.6 171.4 307.3 159.6 307.9 151.0 302.3 149.2 305.8 151.2 311.0 143.1 310.2 141.1 314.8 135.9 314.1 134.4 321.2 128.2 331.6 124.8 319.5 122.5 316.4 115.5 324.2 104.5 326.5 93.6 331.0 93.7 337.9 91.8 341.5 80.4 342.4 78.1 344.8 80.5 356.2 70.6 352.4 67.9 348.1 67.8 342.9 70.3 329.9 87.4 309.2 78.6 310.1 64.3 320.0 59.2 321.8 56.4 318.1 56.4 311.0 54.4 310.9 51.3 313.1 46.0 322.7 45.3 309.9 47.1 304.6 51.0 300.0 63.1 292.9 81.4 293.5 78.4 285.6 73.0 286.1 69.1 283.9 67.6 276.7 62.2 277.6 54.1 284.1 58.7 273.4 63.3 267.7 68.7 265.4 84.9 265.0 88.4 266.9 89.6 270.9 96.6 272.7 104.3 278.4 112.4 280.1 118.0 279.2 125.0 275.3 165.4 236.7 157.7 234.4 153.6 230.1 145.7 239.3 139.3 240.6 142.2 231.8 142.0 226.0 139.7 222.1 131.6 215.6 126.5 223.4 119.5 226.9 120.9 220.7 120.0 214.6 114.1 195.8 109.2 192.6 106.1 183.2 106.5 176.6 110.6 164.0 107.2 166.3 101.4 174.2 99.2 168.4 99.1 162.1 104.2 149.9 96.9 149.9 91.2 146.8 87.2 140.1 96.8 138.9 97.6 135.8 87.3 133.6 83.3 129.5 93.2 124.0 94.2 120.5 92.9 116.3 88.9 111.6 80.1 112.4 74.8 109.8 66.9 109.9 64.9 106.5 64.6 101.2 58.2 103.8 54.4 111.5 54.4 101.2 56.3 94.9 59.6 91.1 65.1 88.4 71.4 80.4 77.5 78.5 83.1 84.9 93.3 84.9 97.6 78.3 92.2 75.2 90.4 69.2 87.2 67.1 87.6 57.0 81.5 56.1 73.8 60.0 75.8 55.3 81.9 48.8 90.3 45.2 96.3 45.7 99.5 48.6 105.1 47.6 110.9 49.0 114.9 54.1 114.2 60.2 119.1 65.7 118.8 75.0 120.3 80.0 132.5 67.4 135.9 67.5 138.6 70.0 140.0 68.8 143.5 61.8 143.1 53.7 147.4 57.1 150.9 62.6 151.5 67.7 146.1 80.9 146.2 87.8 143.2 91.3 132.0 93.5 128.3 96.8 127.4 101.5 129.0 114.3 142.4 135.4 155.4 151.2 172.2 165.1 188.5 173.8 195.8 162.0 185.7 161.0 199.0 147.8 211.6 143.1 224.6 144.8 227.8 140.0 253.7 135.2 258.5 132.8 261.4 128.6 243.4 126.5 236.1 122.3 220.7 121.6 216.5 127.3 210.3 129.7 209.2 120.6 204.1 115.7 205.9 107.1 209.1 103.0 216.1 98.6 217.7 107.9 225.6 100.1 209.9 96.9 202.1 96.6 193.2 98.6 179.3 105.2 171.0 104.0 171.7 96.4 178.2 90.5 188.6 87.2 206.7 85.8 205.9 75.5ZM236.1 102.2L227.9 100.5 230.1 110.0 233.0 106.2ZM246.1 104.2L238.5 102.7 239.3 107.2 241.6 110.0ZM260.1 107.0L248.6 104.7 253.1 112.0 257.2 111.4Z" fill="currentColor"/></svg>