<svg xmlns="http://www.w3.org/2000/svg" viewBox="0 0 100 100" role="img" aria-label="Strasbourg emblem" style="color:#F5940D" fill="currentColor"><path d="M16 48L58 48L58 88L16 88ZM14 49L58 49L36 26ZM58 30L78 30L78 88L58 88ZM56 31L80 31L68 8ZM66 5L70 5L70 12L66 12ZM63 3L73 3L73 7L63 7ZM12 60L20 52L20 68ZM26.5 60C26.5 64.69455,30.30545 68.5,35 68.5C39.69455 68.5,43.5 64.69455,43.5 60C43.5 55.30545,39.69455 51.5,35 51.5C30.30545 51.5,26.5 55.30545,26.5 60ZM30 74L30 88L41 88L41 74ZM65 42L65 56L71 56L71 42Z" fill="currentColor"/></svg>