<svg xmlns="http://www.w3.org/2000/svg" viewBox="0 0 100 100" role="img" aria-label="Tallinn emblem" style="color:#F5940D" fill="currentColor"><path d="M 8.00 62.00 L 92.00 62.00 L 92.00 80.00 L 8.00 80.00 Z M 44.00 52.00 L 48.00 52.00 L 48.00 62.00 L 44.00 62.00 Z M 52.00 52.00 L 56.00 52.00 L 56.00 62.00 L 52.00 62.00 Z M 12.00 30.00 L 42.00 30.00 L 42.00 78.00 L 12.00 78.00 Z M 8.00 26.00 L 46.00 26.00 L 46.00 32.00 L 8.00 32.00 Z M 27.00 8.00 L 46.00 27.00 L 8.00 27.00 Z M 58.00 30.00 L 88.00 30.00 L 88.00 78.00 L 58.00 78.00 Z M 54.00 26.00 L 92.00 26.00 L 92.00 32.00 L 54.00 32.00 Z M 73.00 8.00 L 92.00 27.00 L 54.00 27.00 Z" fill="currentColor"/></svg>