<svg xmlns="http://www.w3.org/2000/svg" viewBox="0 0 100 100" role="img" aria-label="Venice emblem" style="color:#F5940D" fill="currentColor"><path d="M38.0 30.0L62.0 30.0L62.0 84.0L38.0 84.0ZM33.0 84.0L67.0 84.0L67.0 90.0L33.0 90.0ZM35.0 16.0L65.0 16.0L65.0 30.0L35.0 30.0ZM42.3 29.0L42.3 22.2C42.3 20.4 43.7 19.0 45.5 19.0C47.3 19.0 48.7 20.4 48.7 22.2L48.7 29.0ZM51.3 29.0L51.3 22.2C51.3 20.4 52.7 19.0 54.5 19.0C56.3 19.0 57.7 20.4 57.7 22.2L57.7 29.0ZM33.0 14.0L67.0 14.0L67.0 17.0L33.0 17.0ZM33.0 15.0L67.0 15.0L50.0 4.0ZM48.5 1.0L51.5 1.0L51.5 5.0L48.5 5.0Z" fill="currentColor"/></svg>