<svg xmlns="http://www.w3.org/2000/svg" viewBox="0 0 100 100" role="img" aria-label="Dubrovnik emblem" style="color:#F5940D" fill="currentColor"><path d="M6.00,80.00 L94.00,80.00 L94.00,92.00 L6.00,92.00 Z M6.00,72.00 L13.00,72.00 L13.00,81.00 L6.00,81.00 Z M78.00,72.00 L85.00,72.00 L85.00,81.00 L78.00,81.00 Z M90.00,72.00 L97.00,72.00 L97.00,81.00 L90.00,81.00 Z M30.00,38.00 C30.00,26.00 70.00,26.00 70.00,38.00 C72.00,56.00 75.00,74.00 73.00,90.00 L27.00,90.00 C25.00,74.00 28.00,56.00 30.00,38.00 Z M28.00,20.00 L72.00,20.00 L72.00,34.00 L28.00,34.00 Z M28.00,8.00 L32.40,8.00 L32.40,24.00 L28.00,24.00 Z M35.33,8.00 L39.73,8.00 L39.73,24.00 L35.33,24.00 Z M42.67,8.00 L47.07,8.00 L47.07,24.00 L42.67,24.00 Z M50.00,8.00 L54.40,8.00 L54.40,24.00 L50.00,24.00 Z M57.33,8.00 L61.73,8.00 L61.73,24.00 L57.33,24.00 Z M64.67,8.00 L69.07,8.00 L69.07,24.00 L64.67,24.00 Z M50.00,53.00 C47.24,53.00 45.00,57.03 45.00,62.00 C45.00,66.97 47.24,71.00 50.00,71.00 C52.76,71.00 55.00,66.97 55.00,62.00 C55.00,57.03 52.76,53.00 50.00,53.00 Z" fill="currentColor"/></svg>