<svg xmlns="http://www.w3.org/2000/svg" viewBox="0 0 100 100" role="img" aria-label="Split emblem" style="color:#F5940D" fill="currentColor"><path d="M30.00,88.00 L70.00,88.00 L70.00,95.00 L30.00,95.00 Z M32.00,74.00 L68.00,74.00 L68.00,88.00 L32.00,88.00 Z M33.00,60.00 L67.00,60.00 L67.00,74.00 L33.00,74.00 Z M34.00,46.00 L66.00,46.00 L66.00,60.00 L34.00,60.00 Z M35.00,33.00 L65.00,33.00 L65.00,46.00 L35.00,46.00 Z M36.50,22.00 L63.50,22.00 L63.50,33.00 L36.50,33.00 Z M36.00,22.00 L64.00,22.00 L50.00,8.00 Z M47.50,4.00 L52.50,4.00 L52.50,9.00 L47.50,9.00 Z M30.50,85.80 L69.50,85.80 L69.50,88.30 L30.50,88.30 Z M31.50,71.80 L68.50,71.80 L68.50,74.30 L31.50,74.30 Z M32.50,57.80 L67.50,57.80 L67.50,60.30 L32.50,60.30 Z M33.50,43.80 L66.50,43.80 L66.50,46.30 L33.50,46.30 Z M35.00,30.80 L65.00,30.80 L65.00,33.30 L35.00,33.30 Z M28.00,86.50 L72.00,86.50 L72.00,88.30 L28.00,88.30 Z M54.00,81.80 L54.00,78.00 C54.00,75.79 52.21,74.00 50.00,74.00 C47.79,74.00 46.00,75.79 46.00,78.00 L46.00,81.80 Z M53.60,68.80 L53.60,63.00 C53.60,61.01 51.99,59.40 50.00,59.40 C48.01,59.40 46.40,61.01 46.40,63.00 L46.40,68.80 Z M48.10,55.30 L48.10,48.50 C48.10,47.06 46.94,45.90 45.50,45.90 C44.06,45.90 42.90,47.06 42.90,48.50 L42.90,55.30 Z M57.10,55.30 L57.10,48.50 C57.10,47.06 55.94,45.90 54.50,45.90 C53.06,45.90 51.90,47.06 51.90,48.50 L51.90,55.30 Z M48.30,41.60 L48.30,35.20 C48.30,33.93 47.27,32.90 46.00,32.90 C44.73,32.90 43.70,33.93 43.70,35.20 L43.70,41.60 Z M56.30,41.60 L56.30,35.20 C56.30,33.93 55.27,32.90 54.00,32.90 C52.73,32.90 51.70,33.93 51.70,35.20 L51.70,41.60 Z M55.00,28.80 L55.00,24.00 C55.00,21.24 52.76,19.00 50.00,19.00 C47.24,19.00 45.00,21.24 45.00,24.00 L45.00,28.80 Z M53.20,86.00 L53.20,78.00 C53.20,76.23 51.77,74.80 50.00,74.80 C48.23,74.80 46.80,76.23 46.80,78.00 L46.80,86.00 Z" fill="currentColor"/></svg>
