<svg xmlns="http://www.w3.org/2000/svg" viewBox="90.3 52.1 488.4 700.3" role="img" aria-label="Freyung emblem" style="color:#F5940D" fill="currentColor"><path d="M487.6 202.2L484.1 219.4 489.4 221.1 500.3 214.3 508.1 214.9 511.2 220.0 503.6 229.3 520.9 236.7 509.9 248.2 521.2 259.9 507.7 265.2 510.4 276.4 503.6 285.4 488.9 284.7 486.8 281.2 490.9 273.1 472.2 262.4 461.3 275.0 451.6 274.7 443.1 267.5 433.8 279.8 418.8 268.1 410.3 280.0 401.6 280.6 396.6 259.6 384.5 269.9 377.2 268.3 385.7 258.4 380.6 253.0 404.0 238.7 413.3 222.3 428.4 230.7 441.1 215.5 445.5 226.0 455.6 219.6 466.3 226.0ZM557.0 235.8L560.8 238.8 540.1 252.0 537.3 260.1 541.8 261.5 551.6 251.9 560.2 253.4 562.2 260.8 553.5 274.2 558.0 276.9 571.1 273.3 565.7 286.8 576.8 292.6 578.7 297.7 570.2 302.7 560.0 298.8 552.0 310.1 550.4 297.4 542.0 295.6 532.4 325.2 520.5 319.2 517.6 306.2 505.1 291.0 521.0 284.4 522.1 273.2 529.7 263.1 529.3 242.3ZM350.2 64.1L357.0 54.0 365.5 52.6 370.9 58.6 371.1 73.5 386.6 64.8 391.5 82.4 398.8 72.7 408.2 70.0 416.0 88.7 419.8 88.1 422.2 79.7 430.2 79.4 432.7 83.1 428.8 96.4 443.6 99.4 441.9 104.7 433.5 106.8 420.1 99.1 410.7 102.2 403.8 95.6 391.1 108.5 379.4 102.9 375.4 105.1 383.2 121.6 401.1 107.7 407.3 115.7 420.8 114.5 427.9 124.2 444.1 121.7 448.4 124.7 448.2 133.0 439.8 142.2 451.2 152.6 440.9 162.6 446.1 178.7 440.7 183.3 423.7 183.6 419.6 191.8 421.8 198.9 432.6 199.8 457.2 184.9 466.5 194.5 467.4 186.1 458.9 177.3 461.8 173.0 481.0 176.9 482.6 188.1 466.7 208.3 440.6 205.8 430.3 211.0 416.9 211.0 399.0 233.3 376.8 236.4 371.0 249.4 353.7 262.3 344.7 287.8 352.5 301.2 349.3 307.5 334.2 302.3 326.6 263.7 307.5 250.8 298.5 252.1 296.5 260.7 243.3 275.4 241.0 279.7 261.2 286.6 272.9 301.7 295.4 318.0 301.4 317.7 320.9 304.0 329.7 316.3 341.9 314.8 351.2 323.2 360.8 308.3 380.2 311.7 395.5 306.0 402.7 294.7 411.0 293.6 418.6 301.2 416.2 321.3 427.0 315.6 427.3 330.6 436.1 332.4 446.5 325.8 454.3 338.1 464.2 324.0 477.8 322.9 489.6 310.5 504.1 308.1 508.4 312.5 507.4 324.3 521.8 332.3 518.6 343.1 524.9 362.6 521.7 367.4 505.5 367.2 491.0 377.8 477.8 379.4 475.5 383.9 480.2 391.5 476.9 395.1 467.4 390.3 465.3 381.3 460.3 389.7 452.5 390.9 447.2 378.2 442.3 376.8 419.0 401.4 410.1 419.2 394.8 429.0 371.2 471.9 368.8 547.5 359.1 563.2 368.1 574.3 368.9 624.7 383.9 649.5 376.8 664.5 384.2 663.2 396.1 672.6 407.4 669.1 414.6 673.4 412.6 678.0 395.0 682.4 386.5 689.1 393.4 701.5 412.1 699.9 424.0 705.7 432.7 693.5 460.4 708.8 477.3 689.5 484.8 690.8 497.6 685.0 512.2 691.8 497.0 697.2 495.0 702.8 507.0 700.5 509.7 705.2 482.8 724.0 447.4 738.9 398.4 749.3 352.3 752.4 306.1 749.3 261.2 740.1 228.5 727.5 197.8 709.6 202.7 704.0 224.5 702.7 238.8 694.3 260.8 690.9 279.5 680.2 288.8 681.4 307.7 663.4 315.7 644.4 325.2 579.8 335.0 570.7 333.5 548.4 340.9 521.8 328.1 471.1 323.5 434.3 292.0 377.8 299.6 376.1 319.9 390.4 335.3 390.7 337.9 398.3 332.2 406.3 342.8 416.6 354.2 414.6 366.2 422.6 357.0 434.1 359.8 438.5 395.5 410.5 414.1 380.2 415.6 369.3 397.9 376.4 395.6 371.6 399.7 361.0 393.6 357.6 387.3 367.1 365.9 372.7 363.7 368.0 371.5 360.6 368.0 355.9 361.5 356.9 356.8 365.7 345.1 367.7 332.5 357.9 320.0 360.7 308.2 355.2 291.5 357.1 285.1 344.8 279.9 357.9 288.1 371.8 283.2 379.0 276.4 380.6 266.8 372.5 276.7 358.6 264.3 343.7 251.2 353.0 244.4 364.9 257.4 368.4 259.4 387.7 242.8 390.5 232.8 399.2 228.4 395.5 235.9 386.1 234.8 381.8 213.3 389.9 209.0 385.4 212.7 375.0 235.7 359.9 233.8 349.4 196.7 359.9 184.9 372.4 171.1 368.2 149.4 377.1 147.3 368.7 155.7 360.1 150.4 349.9 161.7 342.2 161.4 322.6 178.1 311.8 185.0 297.2 170.4 281.9 155.5 284.8 141.6 298.2 122.8 291.0 119.3 285.0 125.0 273.2 115.9 260.5 119.4 256.2 137.3 255.5 138.1 242.5 141.8 239.3 148.9 241.7 152.7 251.5 157.6 251.6 160.4 246.4 157.1 237.2 161.4 232.9 175.2 240.4 202.1 240.2 205.5 236.4 204.0 223.2 210.7 223.2 218.6 232.5 229.3 218.2 234.9 230.4 250.5 220.9 269.5 239.0 272.5 225.9 255.2 214.8 234.9 209.5 223.0 216.9 200.3 212.8 176.5 226.2 168.2 225.2 165.5 221.0 175.8 215.3 178.7 202.0 188.3 208.9 193.1 207.9 197.3 191.5 203.9 193.2 213.2 205.0 219.1 205.2 220.9 200.6 216.3 192.8 230.6 177.2 255.5 186.4 272.7 199.6 280.1 199.7 281.8 192.9 269.4 182.4 273.3 179.3 284.1 185.7 290.0 183.8 284.5 166.8 286.9 155.9 301.6 150.1 309.4 135.0 339.6 135.6 345.9 115.7 351.8 118.2 353.5 132.9 366.4 141.3 355.5 153.0 370.3 156.9 364.5 174.0 378.0 173.9 380.5 167.1 374.6 142.1 361.9 127.4 369.3 113.8 350.2 104.3 335.7 111.9 331.3 123.8 316.9 123.9 288.6 143.6 262.2 177.9 257.1 177.2 258.0 170.5 252.4 168.2 241.9 172.4 244.2 157.1 228.6 152.1 239.1 136.7 255.3 130.2 252.1 111.3 255.9 101.6 261.9 101.8 268.2 112.4 273.9 113.9 278.8 104.2 291.4 104.7 295.2 90.2 306.8 87.0 302.8 73.7 305.6 69.0 317.8 65.8 328.1 57.0 332.0 74.9 336.0 77.7 342.4 67.6ZM396.5 214.5L392.9 207.8 380.5 214.1 367.7 210.6 356.6 224.8 341.8 214.2 327.2 221.1 315.9 213.0 309.4 232.8 340.9 251.1 367.7 236.7 381.0 220.0ZM304.7 216.1L301.6 218.7 304.7 220.4ZM224.6 285.2L214.6 287.5 226.5 295.3 245.3 300.0 248.1 321.4 288.9 337.9 288.0 330.4 270.0 311.9 241.2 290.4ZM339.6 648.4L333.1 648.1 325.3 654.6 316.0 683.2 327.0 676.1ZM351.6 670.9L345.7 672.4 345.1 680.1 354.6 684.1 356.5 693.6 362.0 695.2 364.5 688.2ZM113.8 405.7L173.0 419.8 192.4 458.1 205.2 465.5 230.7 459.7 239.1 439.1 257.8 435.2 267.6 424.4 267.0 441.1 277.6 441.1 262.7 462.1 254.9 491.5 246.8 495.5 235.0 491.4 228.3 499.1 242.3 533.8 247.2 583.3 243.7 603.9 231.5 626.9 224.0 624.1 233.9 591.3 242.5 587.4 235.8 576.6 238.7 562.4 232.9 562.6 231.3 568.2 228.9 565.8 229.1 551.5 223.6 556.4 219.5 550.9 222.0 538.2 212.5 546.4 210.5 537.7 215.0 528.9 205.2 531.9 207.5 521.8 202.0 510.9 186.4 527.8 147.7 532.1 120.0 554.8 113.1 554.8 125.3 543.0 105.9 549.7 101.8 548.4 116.3 540.2 91.5 539.1 103.1 532.9 90.5 526.1 114.5 527.2 135.8 516.3 156.5 493.8 173.0 485.6 177.9 479.0 171.6 475.8 173.7 468.0 163.4 466.2 164.1 455.6 151.0 452.8 156.7 444.6 141.5 440.4 146.9 428.2 128.9 433.7 132.9 421.9 116.2 416.0 90.3 414.7ZM254.0 442.2L249.0 443.6 250.5 448.8 255.3 447.2Z" fill="currentColor"/></svg>