<svg xmlns="http://www.w3.org/2000/svg" viewBox="16.2 28.9 479.9 507.1" role="img" aria-label="Bern emblem" style="color:#F5940D" fill="currentColor"><path d="M114.2 145.8L114.5 146.3L114.0 145.7ZM114.9 146.8L114.9 146.8L115.5 147.5ZM121.2 154.8L119.8 153.0L119.3 152.4ZM122.4 156.3L121.3 155.0L122.9 157.0ZM123.5 157.7L123.5 157.7L122.9 157.0ZM128.2 163.8L128.2 163.8L127.6 163.0ZM132.2 168.9L131.2 167.6L132.7 169.5ZM133.6 170.7L133.6 170.7L133.5 170.5ZM136.6 174.5L136.6 174.5L135.8 173.5ZM138.9 177.4L139.6 178.4L138.1 176.4ZM141.2 180.4L141.2 180.4L140.4 179.4ZM145.4 185.7L142.4 181.9L144.5 184.6ZM70.1 148.4L49.6 145.2L54.8 154.0L34.0 154.3L40.3 159.5L23.3 167.7L30.2 172.5L23.2 176.2L18.2 182.4L33.8 193.5L32.9 203.2L36.4 218.8L43.3 241.8L50.8 258.1L58.8 264.1L70.5 266.6L118.8 264.1L110.9 275.4L146.6 270.9L196.1 273.1L198.9 254.1L196.0 250.4L198.9 254.1L200.7 226.8L195.5 191.8L94.2 198.1L91.9 176.8L97.4 165.6L95.8 154.4L82.2 143.7L62.4 139.5ZM81.1 192.2L83.9 176.7L78.4 178.9L75.1 187.9L86.9 243.2L85.3 252.3L78.3 261.9L88.3 256.4L93.4 245.4ZM153.5 196.0L152.5 194.9L154.4 197.3ZM160.3 204.7L159.3 203.5L160.5 205.0ZM162.3 207.3L161.9 206.8L163.3 208.6ZM171.9 219.6L171.4 218.9L172.6 220.4ZM175.4 224.0L174.2 222.5L173.7 221.9ZM177.6 226.9L177.4 226.6L177.8 227.2ZM181.1 231.4L182.3 232.9L179.9 229.8ZM183.5 234.4L182.3 232.9L184.7 236.0ZM185.8 65.6L190.3 76.1L207.1 64.2L202.2 58.8L197.0 57.2L199.5 57.0L195.4 57.3L193.0 57.8L189.2 59.6ZM198.9 254.1L200.0 255.5L201.3 257.2L200.0 255.5ZM28.6 76.0L36.6 84.2L51.2 93.3L110.5 115.7L123.7 124.3L100.7 124.6L89.0 112.7L87.9 124.0L84.5 127.4L87.4 137.9L131.8 149.7L172.6 167.8L186.8 149.2L184.6 164.7L201.9 193.9L207.3 217.9L206.0 242.1L195.6 314.7L200.0 335.8L198.7 336.9L194.7 332.9L190.2 316.3L169.4 296.7L161.4 281.8L153.0 276.7L146.1 276.2L125.7 287.8L132.3 289.7L132.9 292.1L124.8 299.1L119.9 309.5L130.0 308.9L118.6 328.5L118.8 331.5L124.4 329.5L124.5 350.3L133.6 345.1L136.3 356.4L141.8 364.7L148.4 355.6L153.3 354.9L167.4 364.6L204.4 379.2L222.5 382.4L232.9 379.5L239.6 370.5L250.8 344.1L258.1 352.3L266.1 308.8L273.6 317.4L274.6 315.2L286.9 238.2L286.1 227.0L280.8 213.4L287.7 219.7L291.3 235.2L286.8 282.6L328.9 288.1L301.1 300.8L292.7 308.8L287.6 319.4L287.1 325.0L302.6 374.5L304.5 388.3L289.4 379.4L284.0 370.4L273.4 365.3L262.4 368.2L247.9 386.0L255.9 385.2L247.5 402.7L256.5 400.4L247.6 420.7L252.9 418.6L254.4 421.1L252.9 432.0L260.9 430.0L263.2 445.7L266.4 448.2L274.7 440.3L279.6 438.5L300.9 447.8L328.6 455.0L339.8 452.9L349.3 446.6L357.3 431.1L362.9 397.5L371.6 401.9L373.2 373.3L364.1 346.6L370.9 324.9L378.2 315.7L370.9 343.2L372.3 354.6L398.0 399.5L424.6 437.3L441.0 453.1L433.6 452.6L420.0 441.6L396.7 446.5L382.4 440.7L367.2 446.7L360.6 456.1L357.2 473.1L366.6 469.2L364.3 480.4L366.1 489.7L373.7 481.2L373.6 501.4L382.2 493.0L382.0 504.4L386.0 514.7L388.9 514.6L391.2 509.5L394.5 509.4L399.8 518.6L409.7 523.4L406.9 519.8L411.0 523.8L415.6 523.1L411.8 512.6L415.2 503.7L452.5 481.7L478.1 460.9L483.7 450.9L484.3 445.1L478.7 415.1L488.8 416.7L474.8 378.0L484.8 378.8L460.8 301.8L478.1 303.3L457.4 251.2L452.3 242.4L444.5 234.6L399.8 212.9L410.0 207.7L409.9 205.3L361.0 189.3L362.8 186.6L373.9 183.7L372.0 181.6L300.2 152.0L297.6 150.4L292.1 135.7L284.4 128.9L225.1 101.4L221.7 97.9L227.5 81.7L226.6 74.9L218.2 67.9L202.8 71.8L189.5 83.7L177.6 69.2L151.6 55.0L129.5 56.0L78.0 33.0L78.7 43.8L76.1 60.4L83.0 75.9L85.1 87.1L92.1 79.3L95.8 80.2L121.9 96.5L126.5 105.9L129.1 121.8L112.6 105.6L77.9 85.7L60.9 69.8L54.8 59.8L52.5 49.1L58.6 35.0L42.2 30.9L31.6 34.4L25.7 40.2L21.8 50.4L21.8 57.6ZM292.8 395.8L284.9 386.3L284.0 394.3L289.2 400.0L339.7 418.8L346.7 425.9L350.1 434.8L350.3 423.1L342.6 414.0ZM107.2 137.0L107.0 136.7L107.1 136.8ZM107.6 137.4L107.5 137.4L107.4 137.2ZM109.0 139.3L109.0 139.3L109.1 139.4ZM109.9 140.4L110.0 140.6L109.5 139.9ZM208.1 265.9L206.7 264.1L209.5 267.6ZM215.2 274.9L221.0 282.3L218.0 278.6ZM222.4 284.2L221.0 282.3L223.0 284.9ZM231.5 295.7L230.0 293.8L233.0 297.7ZM244.1 311.8L237.7 303.7L240.9 307.7ZM247.4 316.0L247.2 315.8L247.5 316.2ZM250.6 320.2L249.8 319.1L252.3 322.3ZM259.0 330.9L260.7 333.1L255.6 326.6ZM306.4 391.4L305.1 389.8L307.4 392.7ZM345.1 440.8L343.9 439.3L349.4 446.3ZM371.3 474.3L370.1 472.8L372.5 475.8ZM378.0 482.9L376.6 481.1L380.3 485.8ZM389.5 497.6L387.2 494.6L390.8 499.2ZM274.7 350.9L272.9 348.6L271.9 347.3L272.9 348.6ZM278.3 355.5L276.5 353.2L274.7 350.9L276.5 353.2ZM298.7 381.6L300.6 384.0L296.8 379.1ZM494.0 444.5L493.9 445.5L494.1 444.2ZM492.8 446.4L492.4 447.5L493.0 446.7ZM353.7 451.8L351.5 449.0L349.5 446.4L351.5 449.0ZM359.1 458.7L358.0 457.4L355.8 454.6L358.0 457.4ZM409.7 523.4L410.7 524.7L413.1 527.8ZM418.0 534.0L415.6 530.9L413.1 527.8L415.6 530.9Z" fill="currentColor"/></svg>