<svg xmlns="http://www.w3.org/2000/svg" viewBox="0 0 100 100" role="img" aria-label="Český Krumlov emblem" style="color:#F5940D" fill="currentColor"><path d="m50 45c-15 -11 -25 -40 0 -40c25 0 15 29 0 40zm4.76 3.45c5.83 -17.67 30.32 -36.14 38.04 -12.36c7.73 23.78 -22.95 23.23 -38.04 12.36zm-1.82 5.59c18.6 0.08 43.74 17.67 23.51 32.36c-20.23 14.69 -29.18 -14.64 -23.51 -32.36zm-5.88 0c5.67 17.72 -3.29 47.06 -23.51 32.36c-20.23 -14.69 4.91 -32.28 23.51 -32.36zm-1.82 -5.59c-15.1 10.87 -45.77 11.42 -38.04 -12.36c7.73 -23.78 32.22 -5.3 38.04 12.36zm18.61 -8.17l6.72 -18.6l-15.62 12.14zm-0.34 19.89l19.77 0.64l-16.37 -11.1zm-19.02 5.82l5.5 19l5.5 -19zm-11.42 -16.29l-16.37 11.1l19.77 -0.64zm11.96 -15.89l-15.62 -12.14l6.72 18.6zm17.95 16.18c0 7.18 -5.82 13 -13 13c-7.18 0 -13 -5.82 -13 -13c0 -7.18 5.82 -13 13 -13c7.18 0 13 5.82 13 13zm-7 0c0 -3.31 -2.69 -6 -6 -6c-3.31 0 -6 2.69 -6 6c0 3.31 2.69 6 6 6c3.31 0 6 -2.69 6 -6z" fill="currentColor"/></svg>