<svg xmlns="http://www.w3.org/2000/svg" viewBox="0 0 100 100" role="img" aria-label="Copenhagen emblem" style="color:#F5940D" fill="currentColor"><path d="M 6.00 84.00 L 6.00 44.00 L 21.00 44.00 L 21.00 84.00 Z M 6.00 44.00 L 13.50 30.00 L 21.00 44.00 Z M 20.00 84.00 L 20.00 36.00 L 37.00 36.00 L 37.00 84.00 Z M 20.00 36.00 L 20.00 31.50 L 22.83 31.50 L 22.83 27.00 L 25.67 27.00 L 25.67 22.50 L 28.50 22.50 L 28.50 18.00 L 31.33 22.50 L 31.33 27.00 L 34.17 27.00 L 34.17 31.50 L 37.00 31.50 L 37.00 36.00 Z M 36.00 84.00 L 36.00 42.00 L 52.00 42.00 L 52.00 84.00 Z M 36.00 42.00 L 44.00 26.00 L 52.00 42.00 Z M 51.00 84.00 L 51.00 32.00 L 68.00 32.00 L 68.00 84.00 Z M 51.00 32.00 L 51.00 28.00 L 53.83 28.00 L 53.83 24.00 L 56.67 24.00 L 56.67 20.00 L 59.50 20.00 L 59.50 16.00 L 62.33 20.00 L 62.33 24.00 L 65.17 24.00 L 65.17 28.00 L 68.00 28.00 L 68.00 32.00 Z M 67.00 84.00 L 67.00 40.00 L 94.00 40.00 L 94.00 84.00 Z M 67.00 40.00 L 80.50 24.00 L 94.00 40.00 Z M 10.00 52.00 L 10.00 62.00 L 17.00 62.00 L 17.00 52.00 Z M 10.00 66.00 L 10.00 76.00 L 17.00 76.00 L 17.00 66.00 Z M 24.00 44.00 L 24.00 54.00 L 29.00 54.00 L 29.00 44.00 Z M 30.00 44.00 L 30.00 54.00 L 35.00 54.00 L 35.00 44.00 Z M 24.00 58.00 L 24.00 68.00 L 29.00 68.00 L 29.00 58.00 Z M 30.00 58.00 L 30.00 68.00 L 35.00 68.00 L 35.00 58.00 Z M 40.00 50.00 L 40.00 60.00 L 45.00 60.00 L 45.00 50.00 Z M 40.00 64.00 L 40.00 74.00 L 45.00 74.00 L 45.00 64.00 Z M 55.00 40.00 L 55.00 50.00 L 60.00 50.00 L 60.00 40.00 Z M 61.00 40.00 L 61.00 50.00 L 66.00 50.00 L 66.00 40.00 Z M 55.00 54.00 L 55.00 64.00 L 60.00 64.00 L 60.00 54.00 Z M 61.00 54.00 L 61.00 64.00 L 66.00 64.00 L 66.00 54.00 Z M 72.00 48.00 L 72.00 58.00 L 78.00 58.00 L 78.00 48.00 Z M 82.00 48.00 L 82.00 58.00 L 88.00 58.00 L 88.00 48.00 Z M 72.00 62.00 L 72.00 72.00 L 78.00 72.00 L 78.00 62.00 Z M 82.00 62.00 L 82.00 72.00 L 88.00 72.00 L 88.00 62.00 Z M 11.00 70.00 L 11.00 84.00 L 16.00 84.00 L 16.00 70.00 Z M 26.00 68.00 L 26.00 84.00 L 31.00 84.00 L 31.00 68.00 Z M 41.00 68.00 L 41.00 84.00 L 46.00 84.00 L 46.00 68.00 Z M 56.00 66.00 L 56.00 84.00 L 61.00 84.00 L 61.00 66.00 Z M 76.00 66.00 L 76.00 84.00 L 82.00 84.00 L 82.00 66.00 Z M 4.00 90.00 L 4.00 84.00 L 96.00 84.00 L 96.00 90.00 Z" fill="currentColor"/></svg>
