<svg xmlns="http://www.w3.org/2000/svg" viewBox="0 0 100 100" role="img" aria-label="Nuremberg emblem" style="color:#F5940D" fill="currentColor"><path d="m 43.0 37.0 l 14.0 0.0 l 1.0 15.0 l -3.0 16.0 l -10.0 0.0 l -3.0 -16.0 z m 2.0 -33.0 l 12.0 0.0 l 4.0 7.0 l -4.0 9.0 l -12.0 0.0 l -4.0 -9.0 z m 1.0 5.0 l -12.0 -4.0 l 12.0 -4.0 z m 6.0 30.0 l -18.0 4.0 l 5.0 -7.0 l -13.0 -1.0 l 5.0 -7.0 l -11.0 -2.0 l -8.0 -12.0 l 39.0 11.0 z m 8.0 0.0 l 39.0 -11.0 l -8.0 12.0 l -11.0 2.0 l 5.0 7.0 l -13.0 1.0 l 5.0 7.0 l -18.0 -4.0 z m 4.0 13.0 l 8.0 26.0 l -10.0 -11.0 l -5.0 13.0 l -5.0 -13.0 l -10.0 11.0 l 8.0 -26.0 z" fill="currentColor"/></svg>