<svg xmlns="http://www.w3.org/2000/svg" viewBox="0 0 100 100" role="img" aria-label="Toledo emblem" style="color:#F5940D" fill="currentColor"><path d="M 20.00 46.00 L 80.00 46.00 L 80.00 88.00 L 20.00 88.00 Z M 12.00 20.00 L 28.00 20.00 L 28.00 88.00 L 12.00 88.00 Z M 72.00 20.00 L 88.00 20.00 L 88.00 88.00 L 72.00 88.00 Z M 20.00 14.00 L 30.00 14.00 L 30.00 52.00 L 20.00 52.00 Z M 70.00 14.00 L 80.00 14.00 L 80.00 52.00 L 70.00 52.00 Z M 11.00 20.00 L 29.00 20.00 L 20.00 8.00 Z M 71.00 20.00 L 89.00 20.00 L 80.00 8.00 Z M 19.00 14.00 L 31.00 14.00 L 25.00 4.00 Z M 69.00 14.00 L 81.00 14.00 L 75.00 4.00 Z M 42.00 36.00 L 58.00 36.00 L 58.00 48.00 L 42.00 48.00 Z M 41.00 36.00 L 59.00 36.00 L 50.00 28.00 Z M 16.00 86.00 L 84.00 86.00 L 84.00 92.00 L 16.00 92.00 Z M 16.00 40.00 L 16.00 50.00 L 24.00 50.00 L 24.00 40.00 Z M 76.00 40.00 L 76.00 50.00 L 84.00 50.00 L 84.00 40.00 Z M 46.00 66.00 L 46.00 88.00 L 54.00 88.00 L 54.00 66.00 Z M 28.00 54.00 L 28.00 62.00 L 34.00 62.00 L 34.00 54.00 Z M 66.00 54.00 L 66.00 62.00 L 72.00 62.00 L 72.00 54.00 Z M 28.00 68.00 L 28.00 76.00 L 34.00 76.00 L 34.00 68.00 Z M 66.00 68.00 L 66.00 76.00 L 72.00 76.00 L 72.00 68.00 Z" fill="currentColor"/></svg>
