<svg xmlns="http://www.w3.org/2000/svg" viewBox="0 0 100 100" role="img" aria-label="Bath emblem" style="color:#F5940D" fill="currentColor"><path d="M 9.43 62.13 L 10.08 59.93 L 10.86 57.78 L 11.74 55.67 L 12.75 53.61 L 13.86 51.60 L 15.08 49.67 L 16.40 47.80 L 17.83 46.00 L 19.35 44.29 L 20.96 42.66 L 22.65 41.12 L 24.43 39.68 L 26.29 38.33 L 28.21 37.09 L 30.20 35.96 L 32.25 34.94 L 34.35 34.02 L 36.50 33.23 L 38.69 32.55 L 40.91 32.00 L 43.16 31.56 L 45.43 31.25 L 47.71 31.06 L 50.00 31.00 L 52.29 31.06 L 54.57 31.25 L 56.84 31.56 L 59.09 32.00 L 61.31 32.55 L 63.50 33.23 L 65.65 34.02 L 67.75 34.94 L 69.80 35.96 L 71.79 37.09 L 73.71 38.33 L 75.57 39.68 L 77.35 41.12 L 79.04 42.66 L 80.65 44.29 L 82.17 46.00 L 83.60 47.80 L 84.92 49.67 L 86.14 51.60 L 87.25 53.61 L 88.26 55.67 L 89.14 57.78 L 89.92 59.93 L 90.57 62.13 L 84.77 63.68 L 84.21 61.80 L 83.55 59.95 L 82.79 58.14 L 81.93 56.38 L 80.98 54.66 L 79.93 53.00 L 78.80 51.40 L 77.58 49.86 L 76.28 48.39 L 74.89 46.99 L 73.44 45.68 L 71.92 44.44 L 70.33 43.29 L 68.68 42.22 L 66.97 41.25 L 65.21 40.37 L 63.41 39.59 L 61.57 38.91 L 59.70 38.33 L 57.79 37.85 L 55.86 37.48 L 53.92 37.21 L 51.96 37.05 L 50.00 37.00 L 48.04 37.05 L 46.08 37.21 L 44.14 37.48 L 42.21 37.85 L 40.30 38.33 L 38.43 38.91 L 36.59 39.59 L 34.79 40.37 L 33.03 41.25 L 31.32 42.22 L 29.67 43.29 L 28.08 44.44 L 26.56 45.68 L 25.11 46.99 L 23.72 48.39 L 22.42 49.86 L 21.20 51.40 L 20.07 53.00 L 19.02 54.66 L 18.07 56.38 L 17.21 58.14 L 16.45 59.95 L 15.79 61.80 L 15.23 63.68 Z M 30.25 69.87 L 31.33 65.83 L 14.99 59.56 L 12.96 67.13 Z M 32.30 63.69 L 34.62 60.21 L 21.17 49.02 L 16.81 55.54 Z M 36.23 58.49 L 39.55 55.95 L 30.41 41.03 L 24.19 45.80 Z M 41.63 54.84 L 45.59 53.49 L 41.72 36.42 L 34.30 38.94 Z M 47.91 53.11 L 52.09 53.11 L 53.92 35.71 L 46.08 35.71 Z M 54.41 53.49 L 58.37 54.84 L 65.70 38.94 L 58.28 36.42 Z M 60.45 55.95 L 63.77 58.49 L 75.81 45.80 L 69.59 41.03 Z M 65.38 60.21 L 67.70 63.69 L 83.19 55.54 L 78.83 49.02 Z M 68.67 65.83 L 69.75 69.87 L 87.04 67.13 L 85.01 59.56 Z M 30.68 67.82 L 30.99 66.78 L 31.36 65.75 L 31.78 64.75 L 32.26 63.77 L 32.79 62.81 L 33.37 61.89 L 34.00 61.00 L 34.68 60.14 L 35.40 59.33 L 36.17 58.55 L 36.98 57.82 L 37.82 57.13 L 38.71 56.49 L 39.62 55.90 L 40.57 55.36 L 41.55 54.87 L 42.55 54.44 L 43.57 54.06 L 44.61 53.74 L 45.67 53.47 L 46.74 53.27 L 47.82 53.12 L 48.91 53.03 L 50.00 53.00 L 51.09 53.03 L 52.18 53.12 L 53.26 53.27 L 54.33 53.47 L 55.39 53.74 L 56.43 54.06 L 57.45 54.44 L 58.45 54.87 L 59.43 55.36 L 60.38 55.90 L 61.29 56.49 L 62.18 57.13 L 63.02 57.82 L 63.83 58.55 L 64.60 59.33 L 65.32 60.14 L 66.00 61.00 L 66.63 61.89 L 67.21 62.81 L 67.74 63.77 L 68.22 64.75 L 68.64 65.75 L 69.01 66.78 L 69.32 67.82 L 65.45 68.86 L 65.21 68.02 L 64.91 67.20 L 64.57 66.40 L 64.19 65.61 L 63.77 64.85 L 63.30 64.11 L 62.80 63.40 L 62.26 62.72 L 61.68 62.06 L 61.06 61.44 L 60.42 60.86 L 59.74 60.31 L 59.03 59.79 L 58.30 59.32 L 57.54 58.89 L 56.76 58.50 L 55.96 58.15 L 55.14 57.85 L 54.31 57.59 L 53.46 57.38 L 52.61 57.21 L 51.74 57.10 L 50.87 57.02 L 50.00 57.00 L 49.13 57.02 L 48.26 57.10 L 47.39 57.21 L 46.54 57.38 L 45.69 57.59 L 44.86 57.85 L 44.04 58.15 L 43.24 58.50 L 42.46 58.89 L 41.70 59.32 L 40.97 59.79 L 40.26 60.31 L 39.58 60.86 L 38.94 61.44 L 38.32 62.06 L 37.74 62.72 L 37.20 63.40 L 36.70 64.11 L 36.23 64.85 L 35.81 65.61 L 35.43 66.40 L 35.09 67.20 L 34.79 68.02 L 34.55 68.86 Z" fill="currentColor"/></svg>