<svg xmlns="http://www.w3.org/2000/svg" viewBox="0 0 100 100" role="img" aria-label="Porto emblem" style="color:#F5940D" fill="currentColor"><path d="M 12.00 52.00 L 21.00 52.00 L 21.00 90.00 L 12.00 90.00 Z M 79.00 52.00 L 88.00 52.00 L 88.00 90.00 L 79.00 90.00 Z M 9.00 84.00 L 23.00 84.00 L 23.00 90.00 L 9.00 90.00 Z M 77.00 84.00 L 91.00 84.00 L 91.00 90.00 L 77.00 90.00 Z M 15.00 62.00 C 15.00 37.35 30.75 33.00 50.00 33.00 C 69.25 33.00 85.00 37.35 85.00 62.00 L 85.00 70.00 C 85.00 48.75 67.50 45.00 50.00 45.00 C 32.50 45.00 15.00 48.75 15.00 70.00 Z M 9.00 15.00 L 91.00 15.00 L 91.00 23.00 L 9.00 23.00 Z M 21.90 42.00 L 26.10 42.00 L 26.10 62.00 L 21.90 62.00 Z M 33.90 34.00 L 38.10 34.00 L 38.10 62.00 L 33.90 62.00 Z M 47.90 33.00 L 52.10 33.00 L 52.10 62.00 L 47.90 62.00 Z M 61.90 34.00 L 66.10 34.00 L 66.10 62.00 L 61.90 62.00 Z M 73.90 42.00 L 78.10 42.00 L 78.10 62.00 L 73.90 62.00 Z" fill="currentColor"/></svg>