<svg xmlns="http://www.w3.org/2000/svg" viewBox="0 0 100 100" role="img" aria-label="Ghent emblem" style="color:#F5940D" fill="currentColor"><path d="M 32.00 40.00 L 68.00 40.00 L 68.00 90.00 L 32.00 90.00 Z M 29.00 87.00 L 71.00 87.00 L 71.00 91.00 L 29.00 91.00 Z M 28.00 38.00 L 72.00 38.00 L 72.00 42.00 L 28.00 42.00 Z M 28.00 30.00 L 35.00 30.00 L 35.00 40.00 L 28.00 40.00 Z M 28.00 30.00 L 35.00 30.00 L 31.50 26.00 Z M 65.00 30.00 L 72.00 30.00 L 72.00 40.00 L 65.00 40.00 Z M 65.00 30.00 L 72.00 30.00 L 68.50 26.00 Z M 38.00 30.00 L 62.00 30.00 L 50.00 6.00 Z M 35.00 28.00 L 65.00 28.00 L 65.00 32.00 L 35.00 32.00 Z M 47.00 3.00 L 53.00 3.00 L 53.00 8.00 L 47.00 8.00 Z M 46.00 8.00 L 54.00 8.00 L 50.00 3.00 Z M 44.00 48.00 L 44.00 62.00 L 56.00 62.00 L 56.00 48.00 Z" fill="currentColor"/></svg>