<svg xmlns="http://www.w3.org/2000/svg" viewBox="0 0 100 100" role="img" aria-label="Lyon emblem" style="color:#F5940D" fill="currentColor"><path d="M 8.00,93.00 L 92.00,93.00 L 84.00,88.00 L 16.00,88.00 Z M 12.00,76.00 L 88.00,76.00 L 88.00,90.00 L 12.00,90.00 Z M 15.00,48.00 L 23.00,48.00 L 26.00,51.00 L 26.00,87.00 L 23.00,90.00 L 15.00,90.00 L 12.00,87.00 L 12.00,51.00 Z M 15.00,48.00 L 23.00,48.00 L 19.00,30.00 Z M 77.00,48.00 L 85.00,48.00 L 88.00,51.00 L 88.00,87.00 L 85.00,90.00 L 77.00,90.00 L 74.00,87.00 L 74.00,51.00 Z M 77.00,48.00 L 85.00,48.00 L 81.00,30.00 Z M 32.00,40.00 L 38.00,40.00 L 41.00,43.00 L 41.00,87.00 L 38.00,90.00 L 32.00,90.00 L 29.00,87.00 L 29.00,43.00 Z M 32.00,40.00 L 38.00,40.00 L 35.00,22.00 Z M 62.00,40.00 L 68.00,40.00 L 71.00,43.00 L 71.00,87.00 L 68.00,90.00 L 62.00,90.00 L 59.00,87.00 L 59.00,43.00 Z M 62.00,40.00 L 68.00,40.00 L 65.00,22.00 Z M 41.00,35.00 L 59.00,35.00 L 59.00,90.00 L 41.00,90.00 Z M 41.00,35.00 L 59.00,35.00 L 50.00,14.00 Z" fill="currentColor"/></svg>