<svg xmlns="http://www.w3.org/2000/svg" viewBox="0 0 100 100" role="img" aria-label="Seville emblem" style="color:#F5940D" fill="currentColor"><path d="M 28.00 89.00 L 72.00 89.00 L 72.00 93.00 L 28.00 93.00 Z M 32.00 40.00 L 68.00 40.00 L 68.00 89.00 L 32.00 89.00 Z M 29.00 38.00 L 71.00 38.00 L 71.00 41.00 L 29.00 41.00 Z M 37.00 22.00 L 63.00 22.00 L 63.00 38.00 L 37.00 38.00 Z M 35.00 20.00 L 65.00 20.00 L 65.00 23.00 L 35.00 23.00 Z M 41.00 14.00 L 59.00 14.00 L 59.00 21.00 L 41.00 21.00 Z M 44.00 10.00 L 56.00 10.00 L 56.00 15.00 L 44.00 15.00 Z M 49.00 6.00 L 51.00 6.00 L 51.00 11.00 L 49.00 11.00 Z M 46.00 4.50 L 54.00 4.50 L 54.00 7.00 L 46.00 7.00 Z M 49.20 3.00 L 50.80 3.00 L 50.80 5.50 L 49.20 5.50 Z M 45.00 58.00 L 45.00 50.00 C 45.00 47.80 48.50 46.00 50.00 46.00 C 51.50 46.00 55.00 47.80 55.00 50.00 L 55.00 58.00 Z M 45.00 72.00 L 45.00 64.00 C 45.00 61.80 48.50 60.00 50.00 60.00 C 51.50 60.00 55.00 61.80 55.00 64.00 L 55.00 72.00 Z M 45.00 86.00 L 45.00 78.00 C 45.00 75.80 48.50 74.00 50.00 74.00 C 51.50 74.00 55.00 75.80 55.00 78.00 L 55.00 86.00 Z M 47.50 35.00 L 47.50 28.00 C 47.50 26.35 49.25 25.00 50.00 25.00 C 50.75 25.00 52.50 26.35 52.50 28.00 L 52.50 35.00 Z" fill="currentColor"/></svg>
