<svg xmlns="http://www.w3.org/2000/svg" viewBox="0 0 100 100" role="img" aria-label="Salzburg emblem" style="color:#F5940D" fill="currentColor"><path d="m 8,92 l 0,-38 l 4,0 l 0,-14 l 4,0 l 0,6 l 3,0 l 0,-6 l 4,0 l 0,6 l 3,0 l 0,-6 l 4,0 l 0,14 l 3,0 l 0,6 l 3,0 l 0,-6 l 3,0 l 0,-36 l 5,0 l 0,7 l 3.5,0 l 0,-7 l 5,0 l 0,7 l 3.5,0 l 0,-7 l 5,0 l 0,36 l 3,0 l 0,6 l 3,0 l 0,-6 l 3,0 l 0,-14 l 4,0 l 0,6 l 3,0 l 0,-6 l 4,0 l 0,6 l 3,0 l 0,-6 l 4,0 l 0,14 l 4,0 l 0,38 z m 51,0 l 0,-22 c -3,-10 -15,-10 -18,0 l 0,22 z" fill="currentColor"/></svg>