<svg xmlns="http://www.w3.org/2000/svg" viewBox="0 0 100 100" role="img" aria-label="Budapest emblem" style="color:#F5940D" fill="currentColor"><path d="M8.00,62.00 L92.00,62.00 L92.00,70.00 L8.00,70.00 Z M18.00,12.00 L34.00,12.00 L34.00,82.00 L18.00,82.00 Z M17.00,12 L26.00,4 L35.00,12 Z M22.00,22.00 L22.00,40.00 L30.00,40.00 L30.00,22.00 Z M22.00,48.00 L22.00,60.00 L30.00,60.00 L30.00,48.00 Z M66.00,12.00 L82.00,12.00 L82.00,82.00 L66.00,82.00 Z M65.00,12 L74.00,4 L83.00,12 Z M70.00,22.00 L70.00,40.00 L78.00,40.00 L78.00,22.00 Z M70.00,48.00 L70.00,60.00 L78.00,60.00 L78.00,48.00 Z M23.59,6.67 L24.76,10.88 L26.01,14.88 L27.33,18.60 L28.71,22.07 L30.16,25.27 L31.66,28.22 L33.22,30.90 L34.84,33.33 L36.52,35.50 L38.26,37.41 L40.06,39.06 L41.93,40.44 L43.87,41.54 L45.87,42.34 L47.92,42.83 L50.00,43.00 L52.08,42.83 L54.13,42.34 L56.13,41.54 L58.07,40.44 L59.94,39.06 L61.74,37.41 L63.48,35.50 L65.16,33.33 L66.78,30.90 L68.34,28.22 L69.84,25.27 L71.29,22.07 L72.67,18.60 L73.99,14.88 L75.24,10.88 L76.41,6.67 L71.59,5.33 L70.44,9.47 L69.24,13.30 L67.99,16.85 L66.68,20.12 L65.33,23.11 L63.95,25.83 L62.53,28.26 L61.09,30.42 L59.64,32.29 L58.19,33.89 L56.75,35.20 L55.34,36.25 L53.95,37.04 L52.60,37.58 L51.29,37.90 L50.00,38.00 L48.71,37.90 L47.40,37.58 L46.05,37.04 L44.66,36.25 L43.25,35.20 L41.81,33.89 L40.36,32.29 L38.91,30.42 L37.47,28.26 L36.05,25.83 L34.67,23.11 L33.32,20.12 L32.01,16.85 L30.76,13.30 L29.56,9.47 L28.41,5.33 Z M28.50,17.72 L31.50,17.72 L31.50,62.00 L28.50,62.00 Z M38.50,35.65 L41.50,35.65 L41.50,62.00 L38.50,62.00 Z M48.50,40.50 L51.50,40.50 L51.50,62.00 L48.50,62.00 Z M58.50,35.65 L61.50,35.65 L61.50,62.00 L58.50,62.00 Z M68.50,17.72 L71.50,17.72 L71.50,62.00 L68.50,62.00 Z " fill="currentColor"/></svg>