<svg xmlns="http://www.w3.org/2000/svg" viewBox="0 0 100 100" role="img" aria-label="Santiago de Compostela emblem" style="color:#F5940D" fill="currentColor"><path d="M 50.00 84.00 C 28.00 82.00 12.00 76.00 16.00 58.00 C 10.00 44.00 14.00 36.00 20.00 22.00 C 21.50 14.65 28.50 14.65 30.00 22.00 C 31.50 14.65 38.50 14.65 40.00 22.00 C 41.50 14.65 48.50 14.65 50.00 22.00 C 51.50 14.65 58.50 14.65 60.00 22.00 C 61.50 14.65 68.50 14.65 70.00 22.00 C 71.50 14.65 78.50 14.65 80.00 22.00 C 86.00 36.00 90.00 44.00 84.00 58.00 C 88.00 76.00 72.00 82.00 50.00 84.00 Z M 45.79 73.57 L 30.31 40.92 L 25.42 51.52 Z M 47.42 71.17 L 39.79 30.36 L 33.07 36.85 Z M 50.00 70.00 L 53.80 27.45 L 46.20 27.45 Z M 52.58 71.17 L 66.93 36.85 L 60.21 30.36 Z M 54.21 73.57 L 74.58 51.52 L 69.69 40.92 Z" fill="currentColor"/></svg>
