<svg xmlns="http://www.w3.org/2000/svg" viewBox="0 0 100 100" role="img" aria-label="Regensburg emblem" style="color:#F5940D" fill="currentColor"><path d="m 77.67 14.43 l 7.91 7.91 l -60.81 60.81 l -7.91 -7.91 z m 2.74 5.17 l 9.73 9.73 l -4.86 4.86 l -9.73 -9.73 z m -9.73 9.73 l 12.16 12.16 l -4.86 4.86 l -12.16 -12.16 z m -41.35 63.24 c -6.05 6.05 -15.85 6.05 -21.89 0 c -6.05 -6.05 -6.05 -15.85 0 -21.89 c 6.05 -6.05 15.85 -6.05 21.89 0 c 6.05 6.05 6.05 15.85 0 21.89 z m -5.47 -5.47 c 3.02 -3.02 3.02 -7.92 0 -10.95 c -3.02 -3.02 -7.92 -3.02 -10.95 0 c -3.02 3.02 -3.02 7.92 0 10.95 c 3.02 3.02 7.92 3.02 10.95 0 z m -9.43 -64.76 l 7.91 -7.91 l 60.81 60.81 l -7.91 7.91 z m -4.56 6.99 l 9.73 -9.73 l 4.86 4.86 l -9.73 9.73 z m 7.3 12.16 l 12.16 -12.16 l 4.86 4.86 l -12.16 12.16 z m 75.41 29.19 c 6.05 6.05 6.05 15.85 0 21.89 c -6.05 6.05 -15.85 6.05 -21.89 0 c -6.05 -6.05 -6.05 -15.85 0 -21.89 c 6.05 -6.05 15.85 -6.05 21.89 0 z m -5.47 5.47 c -3.02 -3.02 -7.92 -3.02 -10.95 0 c -3.02 3.02 -3.02 7.92 0 10.95 c 3.02 3.02 7.92 3.02 10.95 0 c 3.02 -3.02 3.02 -7.92 0 -10.95 z" fill="currentColor"/></svg>